<svg xmlns="http://www.w3.org/2000/svg" viewBox="0 0 48 48">
  <defs>
    <linearGradient id="g" x1="0%" y1="0%" x2="100%" y2="100%">
      <stop offset="0%" stop-color="#6366f1"/>
      <stop offset="100%" stop-color="#8b5cf6"/>
    </linearGradient>
  </defs>
  <rect width="48" height="48" rx="10" fill="url(#g)"/>
  <path d="M26.1 30.2l-7.6-7.5.09-.09c5.2-5.8 8.9-12.5 11.1-19.6H39V6H18V2H14V6H1v3h18.5C18 11.8 15.3 15.8 12 19.4c-1.8-2-3.4-4.2-4.6-6.6H3.4c1.5 3.3 3.5 6.4 6 8.7L-1 32.7 1 35l10-10 6.2 6.2 2.3-6.1.6 4.9zM34.5 14H30L21 40h4l2.25-6h9.5L39 40h4L34.5 14zm-5.25 14l3.25-8.67L35.75 28h-6.5z" fill="white" transform="scale(0.78) translate(3, 3)"/>
</svg>
