<svg xmlns="http://www.w3.org/2000/svg" viewBox="0 0 128 128">
  <defs>
    <linearGradient id="g" x1="0%" y1="0%" x2="100%" y2="100%">
      <stop offset="0%" stop-color="#6366f1"/>
      <stop offset="100%" stop-color="#8b5cf6"/>
    </linearGradient>
    <filter id="shadow">
      <feDropShadow dx="0" dy="4" stdDeviation="8" flood-color="#6366f1" flood-opacity="0.4"/>
    </filter>
  </defs>
  <rect width="128" height="128" rx="28" fill="url(#g)" filter="url(#shadow)"/>
  <path d="M69.6 80.5l-20.3-20 .24-.24c13.9-15.5 23.9-33.4 29.7-52.3H104V16H48V8H38V16H2v8h49.4C48 31.4 40.8 42 30.5 52c-4.9-5.3-9-11.3-12.3-17.6H9c3.9 8.8 9.3 17.1 16 23.2L-2.7 87.2 2.7 93.4l26.7-26.7 16.6 16.6 6.1-16.3 1.6 13.2zm-18.6-19h.01zM92 38H80L56.8 102h8l6-16H96L102 102h8L92 38zm-14 40l8.67-23.2L95.33 78H78z" fill="white" transform="scale(0.72) translate(13, 13)"/>
</svg>
